<svg width="774" height="600" viewBox="0 0 774 600" fill="none" xmlns="http://www.w3.org/2000/svg">
    <g clip-path="url(#clip0_2_86)">
    <path d="M11.8925 552.604C16.9446 570.131 31.6961 582.399 47.0839 592.822C49.2324 594.277 51.3816 595.699 53.5315 597.088C53.5461 597.094 53.5611 597.108 53.5758 597.114C53.6793 597.18 53.7829 597.247 53.8793 597.314C54.323 597.6 54.7669 597.886 55.2069 598.169L54.9652 598.277C54.9652 598.277 54.7278 598.404 54.9875 598.298C55.0648 598.265 55.1458 598.236 55.2229 598.204C64.1622 594.599 73.2602 590.727 80.1109 583.973C87.2174 576.96 91.3704 565.959 87.5223 556.745C87.0165 555.539 86.3776 554.392 85.6175 553.327C85.3053 552.88 84.9692 552.452 84.6192 552.033C82.4965 549.442 79.7222 547.464 76.5814 546.301C73.4406 545.138 70.0467 544.832 66.7488 545.416C63.4508 545.999 60.3677 547.451 57.8166 549.621C55.2655 551.791 53.3385 554.601 52.2336 557.763C51.1031 547.237 59.7823 538.42 68.1349 531.914C76.4911 525.412 85.9862 518.331 87.6016 507.864C88.5038 502.04 86.4786 496.396 82.7894 491.865C82.6752 491.727 82.5611 491.59 82.4435 491.456C77.9527 486.179 71.6364 482.791 64.7563 481.967C51.9431 480.636 39.4971 487.418 30.1886 496.327C15.2065 510.66 6.14925 532.677 11.8925 552.604Z" fill="#F1F1F1"/>
    <path d="M35.9767 529.68C33.5176 533.506 31.6296 537.67 30.3723 542.041C29.309 545.948 28.8358 549.991 28.9683 554.038C29.3113 562.364 31.6489 570.487 35.7845 577.722C38.8998 583.211 42.6964 588.285 47.0839 592.822C49.2324 594.277 51.3817 595.699 53.5316 597.088C53.5461 597.094 53.5611 597.108 53.5759 597.114C53.6793 597.18 53.7829 597.247 53.8793 597.314C54.323 597.6 54.7669 597.886 55.2069 598.169C55.2069 598.169 54.7279 598.404 54.9876 598.298C55.0648 598.265 55.1458 598.236 55.2229 598.204C54.4217 591.635 55.2066 584.97 57.5118 578.767C59.817 572.564 63.5754 567.004 68.4719 562.553C73.3803 558.17 79.2552 555.008 85.6175 553.327C85.3054 552.88 84.9692 552.452 84.6192 552.033C82.1619 552.722 79.7704 553.627 77.4725 554.737C69.2585 558.682 62.5327 565.166 58.2908 573.231C54.4842 580.554 52.8459 588.81 53.5682 597.032C53.2009 596.699 52.8332 596.359 52.4765 596.022C45.6837 589.689 39.6502 582.42 35.567 574.03C32.0245 566.926 30.2835 559.059 30.4971 551.123C30.8304 542.47 34.2781 534.454 39.2701 527.477C44.7412 520.033 51.2046 513.371 58.4806 507.678C65.8131 501.805 73.8368 496.852 82.3728 492.928C82.5653 492.838 82.7159 492.678 82.7935 492.48C82.871 492.282 82.8696 492.062 82.7894 491.865C82.7325 491.689 82.6082 491.542 82.4435 491.456C82.3588 491.42 82.2669 491.403 82.1747 491.407C82.0825 491.41 81.9924 491.435 81.9111 491.479C80.8572 491.964 79.8106 492.456 78.7724 492.969C70.1253 497.243 62.0426 502.575 54.71 508.841C47.6271 514.88 40.9591 521.779 35.9767 529.68Z" fill="white"/>
    <path d="M238.265 584.987H251.69L258.076 533.207L238.263 533.208L238.265 584.987Z" fill="#FFB7B7"/>
    <path d="M234.841 580.604L261.278 580.603H261.28C265.748 580.603 270.033 582.379 273.193 585.538C276.352 588.698 278.127 592.983 278.128 597.451V597.998L234.842 598L234.841 580.604Z" fill="#2F2E41"/>
    <path d="M165.581 584.987H179.006L185.392 533.207L165.579 533.208L165.581 584.987Z" fill="#FFB7B7"/>
    <path d="M162.157 580.604L188.594 580.603H188.595C193.064 580.603 197.349 582.379 200.508 585.538C203.668 588.698 205.443 592.983 205.443 597.451V597.998L162.158 598L162.157 580.604Z" fill="#2F2E41"/>
    <path d="M160.112 350.309V487.025L163.573 575.284H192.127L201.646 409.149L220.682 477.507L232.796 573.553L267.407 571.823L244.045 350.309H160.112Z" fill="#2F2E41"/>
    <path d="M193.306 227.438C204.775 227.438 214.073 218.141 214.073 206.671C214.073 195.202 204.775 185.905 193.306 185.905C181.837 185.905 172.539 195.202 172.539 206.671C172.539 218.141 181.837 227.438 193.306 227.438Z" fill="#FFB8B8"/>
    <path d="M184.677 232.849L179.148 238.687L173.956 355.501L235.392 353.771L220.682 251.667L207.703 239.229L201.117 232.849H184.677Z" fill="#8CCF4D"/>
    <path d="M174.822 245.609L179.485 238.041L180.879 254.262C180.879 254.262 192.127 290.604 191.262 322.62C190.397 354.635 195.588 429.915 188.666 430.781C181.744 431.646 152.324 433.377 152.324 427.32C152.324 421.263 150.594 260.319 150.594 260.319L174.822 245.609Z" fill="#2F2E41"/>
    <path d="M206.309 238.041L218.086 247.34L244.044 256.858C244.044 256.858 244.044 367.615 249.236 393.573C254.428 419.532 263.946 422.128 251.832 422.993C239.718 423.858 240.583 419.532 240.583 419.532C240.583 419.532 205.107 308.775 206.837 281.086C208.568 253.397 204.578 238.041 206.309 238.041Z" fill="#2F2E41"/>
    <path d="M173.659 213.169C173.659 213.169 175.424 210.07 175.013 199.719C174.603 189.367 190.366 195.222 203.537 194.234C216.709 193.247 213.921 211.516 213.921 211.516C213.921 211.516 214.871 210.43 216.905 201.613C218.94 192.796 214.321 184.009 214.321 184.009C212.96 174.743 205.628 177.713 205.628 177.713C209.159 179.088 208.481 182.027 208.481 182.027C205.492 176.786 198.16 179.756 198.16 179.756C188.382 173.62 178.471 181.7 178.471 181.7C166.658 184.381 173.586 193.776 173.586 193.776C161.706 199.779 173.659 213.169 173.659 213.169Z" fill="#2F2E41"/>
    <path d="M152.353 414.808C153.233 413.878 153.899 412.766 154.303 411.55C154.707 410.335 154.839 409.046 154.691 407.774C154.543 406.502 154.118 405.278 153.446 404.188C152.773 403.098 151.87 402.169 150.8 401.465L154.541 381.8L143.144 376.612L138.251 404.458C137.189 406.334 136.853 408.535 137.305 410.643C137.757 412.751 138.967 414.62 140.705 415.896C142.443 417.172 144.589 417.766 146.736 417.565C148.883 417.365 150.881 416.384 152.353 414.808V414.808Z" fill="#FFB7B7"/>
    <path d="M154.92 260.319L152.622 259.087C152.622 259.087 140.21 263.78 141.075 267.242C141.941 270.703 134.153 391.843 136.749 396.169C139.345 400.496 160.112 397.034 160.112 397.034L154.92 260.319Z" fill="#2F2E41"/>
    <path d="M253.7 406.652C252.699 405.852 251.886 404.843 251.318 403.696C250.75 402.548 250.44 401.29 250.411 400.009C250.382 398.729 250.633 397.458 251.148 396.285C251.663 395.113 252.429 394.068 253.392 393.223L246.966 374.264L257.535 367.549L266.234 394.45C267.545 396.162 268.183 398.295 268.027 400.445C267.871 402.596 266.931 404.614 265.386 406.118C263.841 407.622 261.798 408.507 259.645 408.606C257.491 408.704 255.375 408.009 253.7 406.652V406.652Z" fill="#FFB7B7"/>
    <path d="M243.557 390.123C243.557 390.123 264.603 390.678 266.575 386.034C268.547 381.39 244.074 262.492 244.452 258.945C244.83 255.397 231.887 252.467 231.887 252.467L229.782 254.004L243.557 390.123Z" fill="#2F2E41"/>
    <path d="M382 600H1C0.734784 600 0.480429 599.895 0.292892 599.707C0.105356 599.52 0 599.265 0 599C0 598.735 0.105356 598.48 0.292892 598.293C0.480429 598.105 0.734784 598 1 598H382C382.265 598 382.52 598.105 382.707 598.293C382.895 598.48 383 598.735 383 599C383 599.265 382.895 599.52 382.707 599.707C382.52 599.895 382.265 600 382 600Z" fill="#CBCBCB"/>
    <path d="M773.099 308H421.441V89.0693H773.099V308ZM429.623 299.818H764.917V97.2514H429.623V299.818Z" fill="#E5E5E5"/>
    <path d="M769.008 93.1605H425.532V303.909H769.008V93.1605Z" fill="white"/>
    <path d="M769.008 146.574V133.634H721.36V93.1605H708.42V133.634H623.592V93.1605H610.652V133.634H479.815V93.1605H466.875V133.634H425.532V146.574H466.875V196.896H425.532V209.835H466.875V263.752H425.532V276.692H536.607V303.909H549.547V276.692H610.652V303.909H623.592V276.692H769.008V263.752H623.592V209.835H769.008V196.896H721.36V146.574L769.008 146.574ZM610.652 146.574V162.389H479.815V146.574H610.652ZM479.815 175.329H610.652V196.896H479.815V175.329ZM479.815 263.752V209.835H536.607V263.752L479.815 263.752ZM610.652 263.752H549.547V209.835H610.652V263.752ZM708.42 196.896H623.592V146.574H708.42V196.896Z" fill="#E6E6E6"/>
    <path d="M679.547 62.0474C679.547 96.3152 617.5 172.654 617.5 172.654C617.5 172.654 555.453 96.3152 555.453 62.0474C555.453 45.5914 561.99 29.8094 573.626 18.1733C585.262 6.53712 601.044 0 617.5 0C633.956 0 649.738 6.53712 661.374 18.1733C673.01 29.8094 679.547 45.5914 679.547 62.0474V62.0474Z" fill="#8CCF4D"/>
    <path d="M645.865 59.3497C645.865 64.9597 644.202 70.4436 641.085 75.1082C637.968 79.7727 633.538 83.4083 628.355 85.5551C623.173 87.7019 617.469 88.2637 611.967 87.1692C606.465 86.0748 601.411 83.3733 597.444 79.4064C593.477 75.4396 590.776 70.3855 589.681 64.8833C588.587 59.3812 589.149 53.678 591.295 48.495C593.442 43.3121 597.078 38.8822 601.742 35.7654C606.407 32.6487 611.891 30.9851 617.501 30.9851C621.226 30.9834 624.915 31.7159 628.357 33.1408C631.8 34.5656 634.927 36.6549 637.561 39.2891C640.196 41.9233 642.285 45.0509 643.71 48.493C645.135 51.9351 645.867 55.6243 645.865 59.3497V59.3497Z" fill="white"/>
    <path d="M617.5 217.436C626.737 217.436 634.226 209.947 634.226 200.71C634.226 191.472 626.737 183.984 617.5 183.984C608.263 183.984 600.774 191.472 600.774 200.71C600.774 209.947 608.263 217.436 617.5 217.436Z" fill="#8CCF4D"/>
    </g>
    <defs>
    <clipPath id="clip0_2_86">
    <rect width="773.099" height="600" fill="white"/>
    </clipPath>
    </defs>
    </svg>
    